<mxfile host="65bd71144e">
    <diagram id="iVNRVeUFioEJS-DaLBsS" name="Page-1">
        <mxGraphModel dx="952" dy="382" grid="1" gridSize="10" guides="1" tooltips="1" connect="1" arrows="1" fold="1" page="1" pageScale="1" pageWidth="827" pageHeight="1169" math="0" shadow="0">
            <root>
                <mxCell id="0"/>
                <mxCell id="1" parent="0"/>
                <mxCell id="2" value="&lt;div style=&quot;color: rgb(167, 219, 247); background-color: rgb(40, 40, 34); font-family: Consolas, &amp;quot;Courier New&amp;quot;, monospace; line-height: 16px;&quot;&gt;&lt;span style=&quot;color: #bcf0c0;&quot;&gt;my-rg&lt;/span&gt;&lt;/div&gt;" style="fontStyle=0;verticalAlign=top;align=center;spacingTop=-2;fillColor=none;rounded=0;whiteSpace=wrap;html=1;strokeColor=#919191;strokeWidth=2;dashed=1;container=1;collapsible=0;expand=0;recursiveResize=0;" vertex="1" parent="1">
                    <mxGeometry x="110" y="50" width="520" height="420" as="geometry"/>
                </mxCell>
                <mxCell id="4" value="my-vnet" style="aspect=fixed;html=1;points=[];align=center;image;fontSize=12;image=img/lib/azure2/networking/Virtual_Networks.svg;" vertex="1" parent="2">
                    <mxGeometry x="130" y="56" width="67" height="40" as="geometry"/>
                </mxCell>
                <mxCell id="5" value="my-subnet" style="points=[[0,0],[0.25,0],[0.5,0],[0.75,0],[1,0],[1,0.25],[1,0.5],[1,0.75],[1,1],[0.75,1],[0.5,1],[0.25,1],[0,1],[0,0.75],[0,0.5],[0,0.25]];outlineConnect=0;gradientColor=none;html=1;whiteSpace=wrap;fontSize=12;fontStyle=0;container=1;pointerEvents=0;collapsible=0;recursiveResize=0;shape=mxgraph.aws4.group;grIcon=mxgraph.aws4.group_security_group;grStroke=0;strokeColor=#147EBA;fillColor=#E6F2F8;verticalAlign=top;align=left;spacingLeft=30;fontColor=#147EBA;dashed=0;" vertex="1" parent="2">
                    <mxGeometry x="50" y="145" width="440" height="255" as="geometry"/>
                </mxCell>
                <mxCell id="8" value="my-nic" style="sketch=0;aspect=fixed;html=1;points=[];align=center;image;fontSize=12;image=img/lib/mscae/NetworkInterfaceCard.svg;" vertex="1" parent="5">
                    <mxGeometry x="120" y="102.5" width="44" height="50" as="geometry"/>
                </mxCell>
                <mxCell id="9" value="my-vm" style="aspect=fixed;html=1;points=[];align=center;image;fontSize=12;image=img/lib/azure2/compute/Virtual_Machine.svg;" vertex="1" parent="5">
                    <mxGeometry x="250.01" y="95.5" width="69" height="64" as="geometry"/>
                </mxCell>
                <mxCell id="12" style="edgeStyle=orthogonalEdgeStyle;html=1;strokeColor=#000000;fontColor=#080808;" edge="1" parent="5" source="9" target="8">
                    <mxGeometry relative="1" as="geometry"/>
                </mxCell>
                <mxCell id="6" value="my-pip" style="aspect=fixed;html=1;points=[];align=center;image;fontSize=12;image=img/lib/azure2/networking/Public_IP_Addresses.svg;" vertex="1" parent="2">
                    <mxGeometry x="249.5" y="44" width="65" height="52" as="geometry"/>
                </mxCell>
                <mxCell id="7" value="my-nsg" style="aspect=fixed;html=1;points=[];align=center;image;fontSize=12;image=img/lib/azure2/networking/Network_Security_Groups.svg;" vertex="1" parent="2">
                    <mxGeometry x="398.15" y="32" width="52.71" height="64" as="geometry"/>
                </mxCell>
                <mxCell id="10" style="edgeStyle=orthogonalEdgeStyle;html=1;entryX=0.388;entryY=1;entryDx=0;entryDy=0;entryPerimeter=0;fontColor=#080808;strokeColor=#000000;" edge="1" parent="2" source="8" target="4">
                    <mxGeometry relative="1" as="geometry"/>
                </mxCell>
                <mxCell id="13" style="edgeStyle=orthogonalEdgeStyle;html=1;strokeColor=#000000;fontColor=#080808;" edge="1" parent="2" source="8" target="6">
                    <mxGeometry relative="1" as="geometry">
                        <Array as="points">
                            <mxPoint x="192" y="170"/>
                            <mxPoint x="282" y="170"/>
                        </Array>
                    </mxGeometry>
                </mxCell>
                <mxCell id="14" value="" style="sketch=0;aspect=fixed;html=1;points=[];align=center;image;fontSize=12;image=img/lib/mscae/ResourceGroup.svg;fontColor=#080808;" vertex="1" parent="1">
                    <mxGeometry x="130" y="30" width="50" height="40" as="geometry"/>
                </mxCell>
            </root>
        </mxGraphModel>
    </diagram>
</mxfile>